<svg xmlns="http://www.w3.org/2000/svg" width="1200" height="600" viewBox="0 0 1200 600" role="img" aria-labelledby="title desc"><title id="title">Teamsive app illustration</title><desc id="desc">Editorial illustration of an Android phone and Teamsive wordmark. Not an app screenshot.</desc><defs><pattern id="grid" width="30" height="30" patternUnits="userSpaceOnUse"><path d="M30 0H0V30" fill="none" stroke="#16140f" stroke-opacity=".06"/></pattern></defs><rect width="1200" height="600" fill="#e7e0cf"/><rect width="1200" height="600" fill="url(#grid)"/><circle cx="940" cy="275" r="240" fill="none" stroke="#16140f" stroke-opacity=".15"/><circle cx="940" cy="275" r="190" fill="none" stroke="#16140f" stroke-opacity=".15"/><path d="M65 72H1135M65 530H1135" stroke="#16140f" stroke-width="2"/><text x="75" y="130" font-family="monospace" font-size="18" letter-spacing="4" fill="#45413a">EXHIBIT H / MOBILE APPS</text><text x="70" y="280" font-family="Georgia,serif" font-size="90" fill="#16140f">Teamsive</text><text x="75" y="330" font-family="Arial,sans-serif" font-size="16" letter-spacing="4" fill="#45413a">ANDROID APPLICATION</text><g transform="translate(760 85) rotate(8 110 210)"><rect x="0" y="0" width="215" height="425" rx="32" fill="#16140f"/><rect x="10" y="10" width="195" height="405" rx="24" fill="#f4f1e9"/><rect x="73" y="17" width="70" height="15" rx="8" fill="#16140f"/><rect x="54" y="126" width="108" height="108" rx="25" fill="#16140f"/><text x="108" y="207" text-anchor="middle" font-family="Georgia,serif" font-size="86" fill="#f4f1e9">T</text><text x="108" y="281" text-anchor="middle" font-family="Georgia,serif" font-size="26" fill="#16140f">Teamsive</text><path d="M80 390H136" stroke="#16140f" stroke-width="4" stroke-linecap="round"/></g><rect x="75" y="395" width="235" height="58" fill="#16140f"/><path d="M94 410L94 438L119 424Z" fill="#f4f1e9"/><text x="135" y="431" font-family="Arial,sans-serif" font-size="20" fill="#f4f1e9">Google Play</text><text x="75" y="563" font-family="monospace" font-size="14" letter-spacing="2" fill="#45413a">APP ILLUSTRATION / TEAMSIVE</text></svg>